<mxfile host="app.diagrams.net" modified="2024-02-11T14:28:38.737Z" agent="Mozilla/5.0 (Windows NT 10.0; Win64; x64) AppleWebKit/537.36 (KHTML, like Gecko) Chrome/121.0.0.0 Safari/537.36 Edg/121.0.0.0" etag="6H6Pl0vnUngbZXHtahwf" version="23.1.2" type="device" pages="3">
  <diagram id="C5RBs43oDa-KdzZeNtuy" name="Main workflow">
    <mxGraphModel dx="963" dy="641" grid="1" gridSize="10" guides="1" tooltips="1" connect="1" arrows="1" fold="1" page="1" pageScale="1" pageWidth="827" pageHeight="1169" math="0" shadow="0">
      <root>
        <mxCell id="WIyWlLk6GJQsqaUBKTNV-0" />
        <mxCell id="WIyWlLk6GJQsqaUBKTNV-1" parent="WIyWlLk6GJQsqaUBKTNV-0" />
        <mxCell id="SvEXPrHNDvoTYQQtvE-j-8" value="Main workflow" style="swimlane;horizontal=0;whiteSpace=wrap;html=1;fontSize=14;" vertex="1" parent="WIyWlLk6GJQsqaUBKTNV-1">
          <mxGeometry x="80" y="40" width="700" height="200" as="geometry" />
        </mxCell>
        <mxCell id="SvEXPrHNDvoTYQQtvE-j-10" value="" style="edgeStyle=orthogonalEdgeStyle;rounded=0;orthogonalLoop=1;jettySize=auto;html=1;" edge="1" parent="SvEXPrHNDvoTYQQtvE-j-8" source="SvEXPrHNDvoTYQQtvE-j-1" target="SvEXPrHNDvoTYQQtvE-j-3">
          <mxGeometry relative="1" as="geometry" />
        </mxCell>
        <mxCell id="SvEXPrHNDvoTYQQtvE-j-1" value="START" style="strokeWidth=2;html=1;shape=mxgraph.flowchart.terminator;whiteSpace=wrap;fillColor=#d5e8d4;strokeColor=#82b366;" vertex="1" parent="SvEXPrHNDvoTYQQtvE-j-8">
          <mxGeometry x="40" y="70" width="100" height="60" as="geometry" />
        </mxCell>
        <mxCell id="SvEXPrHNDvoTYQQtvE-j-15" value="" style="edgeStyle=orthogonalEdgeStyle;rounded=0;orthogonalLoop=1;jettySize=auto;html=1;" edge="1" parent="SvEXPrHNDvoTYQQtvE-j-8" source="SvEXPrHNDvoTYQQtvE-j-3" target="SvEXPrHNDvoTYQQtvE-j-12">
          <mxGeometry relative="1" as="geometry" />
        </mxCell>
        <mxCell id="SvEXPrHNDvoTYQQtvE-j-3" value="Validate Context" style="rounded=0;whiteSpace=wrap;html=1;strokeWidth=2;" vertex="1" parent="SvEXPrHNDvoTYQQtvE-j-8">
          <mxGeometry x="203" y="70" width="120" height="60" as="geometry" />
        </mxCell>
        <mxCell id="SvEXPrHNDvoTYQQtvE-j-2" value="END" style="strokeWidth=2;html=1;shape=mxgraph.flowchart.terminator;whiteSpace=wrap;fillColor=#f8cecc;strokeColor=#b85450;" vertex="1" parent="SvEXPrHNDvoTYQQtvE-j-8">
          <mxGeometry x="560" y="70" width="100" height="60" as="geometry" />
        </mxCell>
        <mxCell id="SvEXPrHNDvoTYQQtvE-j-17" value="" style="edgeStyle=orthogonalEdgeStyle;rounded=0;orthogonalLoop=1;jettySize=auto;html=1;" edge="1" parent="SvEXPrHNDvoTYQQtvE-j-8" source="SvEXPrHNDvoTYQQtvE-j-12" target="SvEXPrHNDvoTYQQtvE-j-2">
          <mxGeometry relative="1" as="geometry" />
        </mxCell>
        <mxCell id="SvEXPrHNDvoTYQQtvE-j-12" value="Loop over cities" style="shape=process;whiteSpace=wrap;html=1;backgroundOutline=1;fillColor=#dae8fc;strokeColor=#6c8ebf;strokeWidth=2;" vertex="1" parent="SvEXPrHNDvoTYQQtvE-j-8">
          <mxGeometry x="377" y="70" width="120" height="60" as="geometry" />
        </mxCell>
      </root>
    </mxGraphModel>
  </diagram>
  <diagram id="S0ea65bG_HwgJTUI0fg4" name="Loop over cities">
    <mxGraphModel dx="963" dy="641" grid="1" gridSize="10" guides="1" tooltips="1" connect="1" arrows="1" fold="1" page="1" pageScale="1" pageWidth="827" pageHeight="1169" math="0" shadow="0">
      <root>
        <mxCell id="0" />
        <mxCell id="1" parent="0" />
        <mxCell id="h_n5g3jx5hk4CO6qaCJd-1" value="Loop over cities" style="swimlane;horizontal=0;whiteSpace=wrap;html=1;fontSize=14;" vertex="1" parent="1">
          <mxGeometry x="80" y="80" width="700" height="240" as="geometry" />
        </mxCell>
        <mxCell id="OcroiU3XVS5PsXTmDlL4-9" value="" style="edgeStyle=orthogonalEdgeStyle;rounded=0;orthogonalLoop=1;jettySize=auto;html=1;" edge="1" parent="h_n5g3jx5hk4CO6qaCJd-1" source="h_n5g3jx5hk4CO6qaCJd-3" target="xG8Vvp7COacRmkmjcHel-1">
          <mxGeometry relative="1" as="geometry" />
        </mxCell>
        <mxCell id="h_n5g3jx5hk4CO6qaCJd-3" value="START" style="strokeWidth=2;html=1;shape=mxgraph.flowchart.terminator;whiteSpace=wrap;fillColor=#d5e8d4;strokeColor=#82b366;" vertex="1" parent="h_n5g3jx5hk4CO6qaCJd-1">
          <mxGeometry x="40" y="80" width="100" height="60" as="geometry" />
        </mxCell>
        <mxCell id="h_n5g3jx5hk4CO6qaCJd-2" value="END" style="strokeWidth=2;html=1;shape=mxgraph.flowchart.terminator;whiteSpace=wrap;fillColor=#f8cecc;strokeColor=#b85450;" vertex="1" parent="h_n5g3jx5hk4CO6qaCJd-1">
          <mxGeometry x="580" y="80" width="100" height="60" as="geometry" />
        </mxCell>
        <mxCell id="OcroiU3XVS5PsXTmDlL4-12" value="" style="edgeStyle=orthogonalEdgeStyle;rounded=0;orthogonalLoop=1;jettySize=auto;html=1;" edge="1" parent="h_n5g3jx5hk4CO6qaCJd-1" source="xG8Vvp7COacRmkmjcHel-1" target="OcroiU3XVS5PsXTmDlL4-2">
          <mxGeometry relative="1" as="geometry" />
        </mxCell>
        <mxCell id="xG8Vvp7COacRmkmjcHel-1" value="Operations city" style="shape=process;whiteSpace=wrap;html=1;backgroundOutline=1;fillColor=#dae8fc;strokeColor=#6c8ebf;strokeWidth=2;" vertex="1" parent="h_n5g3jx5hk4CO6qaCJd-1">
          <mxGeometry x="210" y="80" width="120" height="60" as="geometry" />
        </mxCell>
        <mxCell id="OcroiU3XVS5PsXTmDlL4-15" value="" style="edgeStyle=orthogonalEdgeStyle;rounded=0;orthogonalLoop=1;jettySize=auto;html=1;" edge="1" parent="h_n5g3jx5hk4CO6qaCJd-1" source="OcroiU3XVS5PsXTmDlL4-2" target="h_n5g3jx5hk4CO6qaCJd-2">
          <mxGeometry relative="1" as="geometry" />
        </mxCell>
        <mxCell id="OcroiU3XVS5PsXTmDlL4-21" value="TRUE" style="edgeLabel;html=1;align=center;verticalAlign=middle;resizable=0;points=[];" vertex="1" connectable="0" parent="OcroiU3XVS5PsXTmDlL4-15">
          <mxGeometry x="-0.225" y="-1" relative="1" as="geometry">
            <mxPoint as="offset" />
          </mxGeometry>
        </mxCell>
        <mxCell id="OcroiU3XVS5PsXTmDlL4-22" style="edgeStyle=orthogonalEdgeStyle;rounded=0;orthogonalLoop=1;jettySize=auto;html=1;entryX=0.5;entryY=1;entryDx=0;entryDy=0;" edge="1" parent="h_n5g3jx5hk4CO6qaCJd-1" source="OcroiU3XVS5PsXTmDlL4-2" target="xG8Vvp7COacRmkmjcHel-1">
          <mxGeometry relative="1" as="geometry">
            <Array as="points">
              <mxPoint x="450" y="180" />
              <mxPoint x="270" y="180" />
            </Array>
          </mxGeometry>
        </mxCell>
        <mxCell id="OcroiU3XVS5PsXTmDlL4-24" value="FALSE" style="edgeLabel;html=1;align=center;verticalAlign=middle;resizable=0;points=[];" vertex="1" connectable="0" parent="OcroiU3XVS5PsXTmDlL4-22">
          <mxGeometry x="-0.1167" y="-1" relative="1" as="geometry">
            <mxPoint as="offset" />
          </mxGeometry>
        </mxCell>
        <mxCell id="OcroiU3XVS5PsXTmDlL4-2" value="Is last city?" style="strokeWidth=2;html=1;shape=mxgraph.flowchart.decision;whiteSpace=wrap;" vertex="1" parent="h_n5g3jx5hk4CO6qaCJd-1">
          <mxGeometry x="400" y="60" width="100" height="100" as="geometry" />
        </mxCell>
      </root>
    </mxGraphModel>
  </diagram>
  <diagram id="ADReI4jEA576yadWVpQk" name="Operations city">
    <mxGraphModel dx="963" dy="641" grid="1" gridSize="10" guides="1" tooltips="1" connect="1" arrows="1" fold="1" page="1" pageScale="1" pageWidth="827" pageHeight="1169" math="0" shadow="0">
      <root>
        <mxCell id="0" />
        <mxCell id="1" parent="0" />
        <mxCell id="4DV7kx9GcEwfx9gUkUHD-1" value="Operations city" style="swimlane;horizontal=0;whiteSpace=wrap;html=1;spacing=2;fontSize=14;" vertex="1" parent="1">
          <mxGeometry x="80" y="110" width="700" height="340" as="geometry" />
        </mxCell>
        <mxCell id="rI621J_z8KMOKiR__9mq-3" style="edgeStyle=orthogonalEdgeStyle;rounded=0;orthogonalLoop=1;jettySize=auto;html=1;entryX=0;entryY=0.5;entryDx=0;entryDy=0;" edge="1" parent="4DV7kx9GcEwfx9gUkUHD-1" source="4DV7kx9GcEwfx9gUkUHD-2" target="-6FI9niwqOo9hswEawnT-1">
          <mxGeometry relative="1" as="geometry" />
        </mxCell>
        <mxCell id="rI621J_z8KMOKiR__9mq-4" style="edgeStyle=orthogonalEdgeStyle;rounded=0;orthogonalLoop=1;jettySize=auto;html=1;entryX=0;entryY=0.5;entryDx=0;entryDy=0;" edge="1" parent="4DV7kx9GcEwfx9gUkUHD-1" source="4DV7kx9GcEwfx9gUkUHD-2" target="rI621J_z8KMOKiR__9mq-1">
          <mxGeometry relative="1" as="geometry" />
        </mxCell>
        <mxCell id="rI621J_z8KMOKiR__9mq-5" style="edgeStyle=orthogonalEdgeStyle;rounded=0;orthogonalLoop=1;jettySize=auto;html=1;entryX=0;entryY=0.5;entryDx=0;entryDy=0;dashed=1;" edge="1" parent="4DV7kx9GcEwfx9gUkUHD-1" source="4DV7kx9GcEwfx9gUkUHD-2" target="rI621J_z8KMOKiR__9mq-2">
          <mxGeometry relative="1" as="geometry" />
        </mxCell>
        <mxCell id="4DV7kx9GcEwfx9gUkUHD-2" value="START" style="strokeWidth=2;html=1;shape=mxgraph.flowchart.terminator;whiteSpace=wrap;fillColor=#d5e8d4;strokeColor=#82b366;" vertex="1" parent="4DV7kx9GcEwfx9gUkUHD-1">
          <mxGeometry x="70" y="140" width="100" height="60" as="geometry" />
        </mxCell>
        <mxCell id="4DV7kx9GcEwfx9gUkUHD-5" value="END" style="strokeWidth=2;html=1;shape=mxgraph.flowchart.terminator;whiteSpace=wrap;fillColor=#f8cecc;strokeColor=#b85450;" vertex="1" parent="4DV7kx9GcEwfx9gUkUHD-1">
          <mxGeometry x="530" y="140" width="100" height="60" as="geometry" />
        </mxCell>
        <mxCell id="-6FI9niwqOo9hswEawnT-1" value="Print city name" style="rounded=0;whiteSpace=wrap;html=1;strokeWidth=2;" vertex="1" parent="4DV7kx9GcEwfx9gUkUHD-1">
          <mxGeometry x="290" y="40" width="120" height="60" as="geometry" />
        </mxCell>
        <mxCell id="rI621J_z8KMOKiR__9mq-1" value="Update region counter" style="rounded=0;whiteSpace=wrap;html=1;strokeWidth=2;" vertex="1" parent="4DV7kx9GcEwfx9gUkUHD-1">
          <mxGeometry x="290" y="140" width="120" height="60" as="geometry" />
        </mxCell>
        <mxCell id="rI621J_z8KMOKiR__9mq-2" value="Other" style="rounded=0;whiteSpace=wrap;html=1;strokeWidth=2;" vertex="1" parent="4DV7kx9GcEwfx9gUkUHD-1">
          <mxGeometry x="290" y="240" width="120" height="60" as="geometry" />
        </mxCell>
        <mxCell id="rI621J_z8KMOKiR__9mq-6" style="edgeStyle=orthogonalEdgeStyle;rounded=0;orthogonalLoop=1;jettySize=auto;html=1;entryX=0;entryY=0.5;entryDx=0;entryDy=0;entryPerimeter=0;" edge="1" parent="4DV7kx9GcEwfx9gUkUHD-1" source="-6FI9niwqOo9hswEawnT-1" target="4DV7kx9GcEwfx9gUkUHD-5">
          <mxGeometry relative="1" as="geometry" />
        </mxCell>
        <mxCell id="rI621J_z8KMOKiR__9mq-9" style="edgeStyle=orthogonalEdgeStyle;rounded=0;orthogonalLoop=1;jettySize=auto;html=1;entryX=0;entryY=0.5;entryDx=0;entryDy=0;entryPerimeter=0;dashed=1;" edge="1" parent="4DV7kx9GcEwfx9gUkUHD-1" source="rI621J_z8KMOKiR__9mq-2" target="4DV7kx9GcEwfx9gUkUHD-5">
          <mxGeometry relative="1" as="geometry" />
        </mxCell>
        <mxCell id="rI621J_z8KMOKiR__9mq-11" style="edgeStyle=orthogonalEdgeStyle;rounded=0;orthogonalLoop=1;jettySize=auto;html=1;entryX=0;entryY=0.5;entryDx=0;entryDy=0;entryPerimeter=0;" edge="1" parent="4DV7kx9GcEwfx9gUkUHD-1" source="rI621J_z8KMOKiR__9mq-1" target="4DV7kx9GcEwfx9gUkUHD-5">
          <mxGeometry relative="1" as="geometry" />
        </mxCell>
      </root>
    </mxGraphModel>
  </diagram>
</mxfile>
